# xmcd
# Track frame offsets:
# 150
# 12333
# 28079
# 39764
# 54789
# 69662
# 81843
# 97011
# 115776
# 129671
# 145363
# 156675
# 176990
#
# Disc length: 2640 seconds
# Revision: 0
# Processed by: cddbd v1.4PL0 Copyright (c) Steve Scherf et al.
# Submitted via: VisiTrax 2.9.5.180 - For more info visit www.synapsa.com
#
DISCID=b40a4e0d
DTITLE=Liv Marit Wedvik - Then he kissed me
DYEAR=2002
DGENRE=Various
TTITLE0=01 - then he kissed me
TTITLE1=02 - she ain't me
TTITLE2=03 - long live love
TTITLE3=04 - independence day
TTITLE4=05 - clap your hand's
TTITLE5=06 - when you walk in the room
TTITLE6=07 - don't forget to remember
TTITLE7=08 - tougher than the rest
TTITLE8=09 - cheap whiskey
TTITLE9=10 - i don't feel that way
TTITLE10=11 - where the river flows
TTITLE11=12 - the ballad of lucy jordan
TTITLE12=Believe mp3
EXTD=
EXTT0=
EXTT1=
EXTT2=
EXTT3=
EXTT4=
EXTT5=
EXTT6=
EXTT7=
EXTT8=
EXTT9=
EXTT10=
EXTT11=
EXTT12=
PLAYORDER=
